<?xml version="1.0" encoding="UTF-8"?>
<svg id="Objects" xmlns="http://www.w3.org/2000/svg" version="1.1" viewBox="0 0 2200 2200">
  <!-- Generator: Adobe Illustrator 29.5.1, SVG Export Plug-In . SVG Version: 2.1.0 Build 141)  -->
  <defs>
    <style>
      .st0 {
        fill: #72bf58;
      }

      .st1 {
        fill: #ffc648;
      }

      .st2 {
        fill: #fff;
      }

      .st3 {
        fill: #2d2d2d;
      }

      .st4 {
        fill: #e24242;
      }

      .st5 {
        fill: #e8e8e8;
      }
    </style>
  </defs>
  <path class="st2" d="M182.07,1547.47c0-506.96,410.97-917.93,917.93-917.93s917.93,410.97,917.93,917.93H182.07Z"/>
  <path class="st0" d="M831.07,1044.58c-160.73,92.99-268.85,266.77-268.85,465.8H182.07c0-339.73,184.56-636.36,458.89-795.08l190.11,329.28Z"/>
    <g>
    <path class="st2" d="M519.18,1428.22l3.21-20.32c1.37-8.68,6.65-14.05,14.1-12.87,7.68,1.21,11.19,7.61,9.77,16.6l-1.37,8.67,12.26,1.94-1.85,11.7-36.12-5.71ZM536.96,1419.04l1.07-6.79c.5-3.17-.5-5.21-3.26-5.65-2.31-.37-4.19.77-4.76,4.38l-1.07,6.79,8.02,1.27Z"/>
    <path class="st2" d="M551.45,1379.74l13.09,3.11-2.69,11.35-35.59-8.45,5.11-21.52c2.1-8.84,7.52-12.44,13.41-11.04,4.58,1.09,6.69,4.4,7.07,8.16,1.28-1.73,3.76-4.59,9.8-3.16l1.93.46c2.02.48,4.62,1.09,6.47,1.02l-2.73,11.51c-1.64.23-3.86-.15-7.54-1.02l-1.2-.29c-3.31-.79-4.78-.02-5.84,4.46l-1.28,5.4ZM544.06,1377.99l1.68-7.08c.75-3.15.02-5.18-2.56-5.79-2.37-.56-4.09.74-4.87,4.03l-1.68,7.08,7.43,1.76Z"/>
    <path class="st2" d="M566.49,1310.32c9.82,3.19,16.16,12.42,11.71,26.1-4.08,12.54-14.34,16.88-24.55,13.56-9.58-3.12-15.97-12.63-11.65-25.9,4.08-12.55,14.63-16.96,24.49-13.75ZM557.36,1338c6.05,1.97,11.32,1.02,13.17-4.68,1.91-5.86-2.62-9.37-7.83-11.06-6.04-1.96-11.17-1.27-13.08,4.6-1.82,5.59,2.06,9.29,7.74,11.14Z"/>
    <path class="st2" d="M600.82,1275.7l-3.18,7.53c-.82-.06-2.12-.33-3.33-.65,1.49,3.17,1.72,6.62-.89,12.81-4.69,11.12-14.74,14.08-24.58,9.93-9.59-4.05-15.36-13.65-9.76-26.91,4.52-10.7,12.3-14.04,18.37-12.61l-4.63,10.98c-1.77-.15-4.69.34-6.53,4.7-2.41,5.72,1.39,9.76,6.86,12.06,5.95,2.51,11.5,2.1,13.89-3.56,2.02-4.79.02-7.65-2.59-8.75l-.35-.15-2.78,6.59-7.36-3.11,7.24-17.15,19.64,8.29Z"/>
    <path class="st2" d="M597.33,1252.86l11.93,6.21-5.39,10.35-32.44-16.88,10.21-19.62c4.19-8.06,10.33-10.22,15.7-7.43,4.18,2.17,5.41,5.9,4.86,9.64,1.66-1.36,4.77-3.54,10.27-.67l1.76.91c1.84.96,4.21,2.19,6.03,2.57l-5.46,10.5c-1.64-.17-3.7-1.08-7.06-2.83l-1.09-.57c-3.02-1.57-4.63-1.18-6.75,2.9l-2.56,4.92ZM590.59,1249.36l3.36-6.45c1.49-2.87,1.28-5.02-1.06-6.24-2.16-1.12-4.15-.29-5.71,2.72l-3.36,6.45,6.77,3.52Z"/>
    <path class="st2" d="M627.61,1198.24l-10.29,16.61,5.19,3.22,11.51-18.57,6.46,5.61-16.96,27.37-31.09-19.26,17.01-27.46,7.19,4.46-10.84,17.5,4.33,2.68,10.29-16.61,7.19,4.46Z"/>
    <path class="st2" d="M640.8,1185.55c2.41.8,4.98.35,7.79-3.5,2.49-3.41,2.23-5.22.76-6.3-1.57-1.14-3.18-.86-8.18,3.98-9.86,9.53-14.73,8.39-18.63,5.55-5.85-4.26-5.25-12.24.63-20.32,7.16-9.83,14.58-10.47,19.23-7.67l-6.8,9.34c-1.56-.62-3.68-.89-6.35,2.78-1.89,2.6-1.95,4.45-.56,5.46,1.36.99,2.9.23,7.08-3.76,10.14-9.72,15.22-9.33,19.67-6.09,5.64,4.11,6.29,11.84-1.02,21.88-7.22,9.92-14.64,11.27-20.62,8.26l7-9.62Z"/>
    <path class="st2" d="M665.88,1152.81c2.34.98,4.94.72,8.03-2.91,2.74-3.22,2.62-5.04,1.23-6.22-1.48-1.26-3.11-1.1-8.46,3.35-10.55,8.76-15.32,7.26-18.99,4.14-5.51-4.68-4.32-12.6,2.16-20.22,7.87-9.27,15.32-9.35,19.75-6.2l-7.48,8.8c-1.51-.74-3.6-1.16-6.54,2.29-2.08,2.45-2.27,4.29-.97,5.4,1.29,1.09,2.88.44,7.34-3.21,10.84-8.93,15.88-8.16,20.07-4.6,5.32,4.52,5.39,12.28-2.66,21.74-7.94,9.35-15.44,10.14-21.18,6.69l7.71-9.07Z"/>
    <path class="st2" d="M676.32,1102.86l26.54,25.17-8.19,8.63-26.54-25.17,8.19-8.64Z"/>
    <path class="st2" d="M715.43,1115.46l-35.43-16.89,9.42-8.85,15.16,8.29c5.54,3.01,8.31,4.78,10.52,6.24l.08-.07c-1.2-2.12-2.01-3.46-5.71-11.54l-7.22-14.97,9.3-8.74,14.48,36.58-10.59,9.95Z"/>
    <path class="st2" d="M754.25,1062.73l-15.19,12.29,3.84,4.75,16.98-13.74,4.25,7.42-25.03,20.25-23-28.43,25.1-20.31,5.32,6.58-16,12.94,3.21,3.96,15.19-12.29,5.32,6.58Z"/>
  </g>
  <path class="st1" d="M1559.04,715.3l-190.1,329.28c-79.11-45.78-170.96-71.98-268.94-71.98s-189.82,26.2-268.93,71.98l-190.11-329.28c135.04-78.13,291.81-122.85,459.04-122.85s324,44.72,459.04,122.85Z"/>
  <path class="st4" d="M2017.93,1510.38h-380.15c0-199.03-108.12-372.81-268.84-465.8l190.1-329.28c274.33,158.72,458.89,455.35,458.89,795.08Z"/>
    <g>
    <path class="st2" d="M1451.61,1071.54c-5.9,5.24-14.16,6.05-23.65-.89-10.94-8-11.32-19.01-5.13-27.47,5.91-8.08,16.69-11.46,28.12-3.1,10.01,7.32,10.9,16,7.76,21.91l-9.67-7.08c.78-1.94,1.33-5.26-2.89-8.34-4.48-3.28-9.26-1.38-13.05,3.81-3.44,4.71-4.87,10.33.09,13.96,3.58,2.62,6.2,2.12,8.87.23l9.55,6.98Z"/>
    <path class="st2" d="M1490.65,1097.22c-6.76,7.8-17.73,10.04-28.59.62-9.96-8.64-9.95-19.78-2.92-27.89,6.6-7.61,17.85-9.79,28.39-.64,9.97,8.65,9.92,20.08,3.12,27.91ZM1468.72,1078.02c-4.17,4.8-5.35,10.02-.82,13.95,4.65,4.04,9.65,1.23,13.23-2.9,4.16-4.8,5.52-9.79.86-13.84-4.44-3.85-9.36-1.72-13.27,2.79Z"/>
    <path class="st2" d="M1482.76,1115.12l26.22-25.49,9.66,9.93c-3.75,14.94-5.25,20.21-6.98,25.19l.14.14c2.24-2.63,6.99-7.23,11.33-11.45l4.63-4.5,7.46,7.67-26.22,25.49-9.12-9.38c1.66-5.59,6.55-22.88,8.23-27.54l-.12-.13c-2.75,3.16-6.22,6.56-11.36,11.56l-6.38,6.2-7.47-7.69Z"/>
    <path class="st2" d="M1528.16,1147.7c-1.37,2.13-1.57,4.74,1.46,8.41,2.69,3.25,4.51,3.46,5.91,2.29,1.5-1.24,1.62-2.87-1.83-8.91-6.79-11.92-4.48-16.35-.77-19.42,5.57-4.61,13.17-2.05,19.54,5.65,7.75,9.37,6.53,16.72,2.67,20.53l-7.37-8.9c.99-1.36,1.77-3.34-1.12-6.84-2.05-2.48-3.83-2.99-5.15-1.89-1.3,1.08-.94,2.76,1.89,7.79,6.9,12.23,5.27,17.06,1.03,20.57-5.38,4.45-13.03,3.16-20.95-6.41-7.82-9.45-7.29-16.97-2.9-22.03l7.59,9.17Z"/>
    <path class="st2" d="M1569.05,1195.64l-11.33-15.92-4.97,3.54,12.67,17.8-7.67,3.79-18.68-26.23,29.79-21.21,18.73,26.31-6.89,4.91-11.94-16.76-4.15,2.96,11.34,15.92-6.89,4.91Z"/>
    <path class="st2" d="M1578.84,1213.25l-11.51,6.96-6.04-9.98,31.3-18.92,11.44,18.92c4.7,7.78,3.36,14.14-1.83,17.27-4.03,2.44-7.85,1.56-10.76-.87.3,2.13.54,5.91-4.77,9.12l-1.69,1.02c-1.78,1.08-4.06,2.46-5.33,3.81l-6.12-10.12c1-1.31,2.85-2.6,6.09-4.55l1.05-.64c2.91-1.76,3.42-3.34,1.04-7.28l-2.87-4.75ZM1585.34,1209.33l3.76,6.22c1.68,2.77,3.62,3.71,5.88,2.34,2.08-1.26,2.4-3.39.65-6.29l-3.76-6.22-6.54,3.95Z"/>
    <path class="st2" d="M1587,1254.8l26.28-29.16,5.8,11.54-12.26,12.18c-4.46,4.46-6.95,6.61-8.98,8.31l.05.09c2.37-.55,3.89-.94,12.69-2.19l16.41-2.66,5.73,11.4-39.19,3.47-6.53-12.99Z"/>
    <path class="st2" d="M1609.83,1286.95l-7.19.48-4.57-11.01,39.09-1.26,5.94,14.31-28.12,27.65-4.9-11.8,5.34-4.91-5.59-13.46ZM1622.18,1294.61c5.17-4.73,8.48-7.6,10.95-9.62l-.07-.17c-3.1.43-8.51.92-14.42,1.27l3.54,8.52Z"/>
    <path class="st2" d="M1643.77,1315.25l-3.89-11.43,7.98-2.72,11.59,34.03-7.98,2.72-3.87-11.36-26.64,9.07-3.83-11.25,26.64-9.07Z"/>
    <path class="st2" d="M1664.36,1353.06l-35.19,9.94-3.23-11.45,35.2-9.94,3.23,11.45Z"/>
    <path class="st2" d="M1633.54,1380.21l32.63-21.81,2.79,12.62-14.87,8.79c-5.42,3.23-8.36,4.7-10.74,5.85l.02.1c2.44.05,4,.04,12.84.99l16.56,1.45,2.76,12.46-38.84-6.26-3.14-14.19Z"/>
    <path class="st2" d="M1659.02,1440.53l-2.8-19.34-6.04.87,3.13,21.63-8.55-.14-4.61-31.87,36.2-5.24,4.62,31.97-8.38,1.21-2.95-20.37-5.05.73,2.8,19.34-8.38,1.21Z"/>
  </g>
  <path class="st5" d="M1979.95,1138.63c-48.1-113.72-116.96-215.85-204.65-303.55-87.7-87.7-189.83-156.55-303.55-204.65-117.77-49.81-242.84-75.07-371.75-75.07s-253.98,25.26-371.75,75.07c-113.72,48.1-215.85,116.95-303.55,204.65-87.69,87.7-156.55,189.83-204.65,303.55-49.81,117.77-75.07,242.84-75.07,371.75,0,20.48,16.6,37.09,37.09,37.09h825.16v-74.18H219.91c4.35-105.82,27.32-208.52,68.45-305.77,44.36-104.88,107.88-199.09,188.79-279.99,80.9-80.91,175.1-144.43,279.99-188.79,108.57-45.93,223.93-69.21,342.85-69.21s234.29,23.28,342.85,69.21c104.88,44.36,199.09,107.88,279.99,188.79,80.91,80.9,144.43,175.1,188.79,279.99,41.13,97.24,64.1,199.94,68.45,305.77h-787.32v74.18h825.16c20.49,0,37.09-16.6,37.09-37.09,0-128.91-25.26-253.98-75.07-371.75Z"/>
  <path class="st3" d="M1024.44,1399.36c-297.6-166.37-534.64-275.13-549.3-249.74s198.06,176.29,490.94,350.83c-3.65,49.76,20.69,99.58,66.79,126.2,64.22,37.08,146.33,15.07,183.4-49.14,37.08-64.22,15.07-146.33-49.14-183.4-46.1-26.62-101.42-22.78-142.69,5.26ZM1146.31,1537.11c-14.77,25.58-47.46,34.34-73.04,19.57-25.58-14.77-34.34-47.46-19.57-73.04s47.46-34.34,73.04-19.57c25.58,14.77,34.34,47.46,19.57,73.04Z"/>
  <polyline class="st3" points="1046.53 1510.38 1100 1510.38 1153.47 1510.38"/>
</svg>